<svg xmlns="http://www.w3.org/2000/svg" width="37.729" height="45.225" viewBox="0 0 37.729 45.225">
  <g id="address_-_icon" data-name="address - icon" transform="translate(-2.5 0.5)">
    <path id="Path_39" data-name="Path 39" d="M21.365-.5A18.851,18.851,0,0,1,40.229,18.365a21.538,21.538,0,0,1-2.879,10.3,39.778,39.778,0,0,1-6.1,8.177,57,57,0,0,1-8.775,7.55,2,2,0,0,1-2.219,0,57,57,0,0,1-8.775-7.55,39.778,39.778,0,0,1-6.1-8.177A21.538,21.538,0,0,1,2.5,18.365,18.851,18.851,0,0,1,21.365-.5Zm0,40.766A55.545,55.545,0,0,0,28.4,34.031c3.572-3.783,7.83-9.572,7.83-15.666a14.865,14.865,0,1,0-29.729,0c0,6.094,4.258,11.883,7.83,15.666A55.541,55.541,0,0,0,21.365,40.266Z" transform="translate(0 0)"/>
    <path id="Path_40" data-name="Path 40" d="M19.122,8.5A7.622,7.622,0,1,1,11.5,16.122,7.63,7.63,0,0,1,19.122,8.5Zm0,11.243A3.622,3.622,0,1,0,15.5,16.122,3.626,3.626,0,0,0,19.122,19.743Z" transform="translate(2.243 2.243)"/>
  </g>
</svg>
