<svg xmlns="http://www.w3.org/2000/svg" width="36" height="27" viewBox="0 0 36 27">
  <g id="Group_241" data-name="Group 241" transform="translate(-1621.5 -395.5)">
    <path id="Path_27" data-name="Path 27" d="M12,4.5H31.5A4.505,4.505,0,0,1,36,9V27a4.505,4.505,0,0,1-4.5,4.5H12a1.5,1.5,0,0,1-1.129-.512l-10.5-12a1.5,1.5,0,0,1,0-1.976l10.5-12A1.5,1.5,0,0,1,12,4.5Zm19.5,24A1.5,1.5,0,0,0,33,27V9a1.5,1.5,0,0,0-1.5-1.5H12.681L3.493,18l9.187,10.5Z" transform="translate(1621.5 391)" fill="#171717"/>
    <path id="Path_28" data-name="Path 28" d="M18,24a1.5,1.5,0,0,1-1.061-2.561l9-9a1.5,1.5,0,0,1,2.121,2.121l-9,9A1.5,1.5,0,0,1,18,24Z" transform="translate(1621.5 391)" fill="#171717"/>
    <path id="Path_29" data-name="Path 29" d="M27,24a1.5,1.5,0,0,1-1.061-.439l-9-9a1.5,1.5,0,0,1,2.121-2.121l9,9A1.5,1.5,0,0,1,27,24Z" transform="translate(1621.5 391)" fill="#171717"/>
  </g>
</svg>
