<svg xmlns="http://www.w3.org/2000/svg" width="27.481" height="30.257" viewBox="0 0 27.481 30.257">
  <g id="cart" transform="translate(-3.25 -1.75)">
    <path id="Path_2" data-name="Path 2" d="M8.664,1.75H25.318a1.25,1.25,0,0,1,1,.5L30.482,7.8a1.25,1.25,0,0,1,.25.75v19.43a4.03,4.03,0,0,1-4.026,4.026H7.276A4.03,4.03,0,0,1,3.25,27.982V8.551A1.25,1.25,0,0,1,3.5,7.8L7.664,2.25A1.25,1.25,0,0,1,8.664,1.75Zm16.029,2.5H9.289L5.75,8.968V27.982a1.527,1.527,0,0,0,1.526,1.526h19.43a1.527,1.527,0,0,0,1.526-1.526V8.968Z" fill="#fff"/>
    <path id="Path_3" data-name="Path 3" d="M29.482,10.25H4.5a1.25,1.25,0,1,1,0-2.5H29.482a1.25,1.25,0,1,1,0,2.5Z" transform="translate(0 -0.449)" fill="#fff"/>
    <path id="Path_4" data-name="Path 4" d="M17.551,21.8a6.809,6.809,0,0,1-6.8-6.8,1.25,1.25,0,0,1,2.5,0,4.3,4.3,0,0,0,8.6,0,1.25,1.25,0,0,1,2.5,0A6.809,6.809,0,0,1,17.551,21.8Z" transform="translate(-0.561 -0.897)" fill="#fff"/>
  </g>
</svg>
