<svg xmlns="http://www.w3.org/2000/svg" width="48" height="48" viewBox="0 0 48 48">
  <g id="Wishlist_black" data-name="Wishlist black" transform="translate(-615 -4040)">
    <path id="Icon_ionic-md-heart-empty" data-name="Icon ionic-md-heart-empty" d="M16.938,4.5a5.533,5.533,0,0,0-4.209,1.974A5.533,5.533,0,0,0,8.52,4.5,5.086,5.086,0,0,0,3.375,9.676c0,3.575,3.179,6.444,8,10.869l1.358,1.223,1.358-1.223c4.816-4.425,8-7.294,8-10.869A5.086,5.086,0,0,0,16.938,4.5ZM13.3,19.309l-.189.175-.387.351-.387-.351-.189-.175a57.16,57.16,0,0,1-5.518-5.486A6.6,6.6,0,0,1,4.819,9.676,3.74,3.74,0,0,1,5.884,7.009,3.66,3.66,0,0,1,8.52,5.939,4.124,4.124,0,0,1,11.627,7.4l1.1,1.309,1.1-1.309a4.109,4.109,0,0,1,3.107-1.462,3.678,3.678,0,0,1,2.64,1.07,3.748,3.748,0,0,1,1.066,2.667,6.633,6.633,0,0,1-1.817,4.146A57.275,57.275,0,0,1,13.3,19.309Z" transform="translate(626.271 4050.866)" fill="#171717"/>
    <path id="Icon_ionic-md-heart-empty_-_Outline" data-name="Icon ionic-md-heart-empty - Outline" d="M8.52,4.25A5.74,5.74,0,0,1,12.729,6.1,5.74,5.74,0,0,1,16.938,4.25a5.36,5.36,0,0,1,3.837,1.567,5.424,5.424,0,0,1,1.557,3.859c0,3.634-3.132,6.511-7.872,10.866l-.2.188-1.527,1.376L11.2,20.731,11,20.542C6.257,16.187,3.125,13.31,3.125,9.676A5.424,5.424,0,0,1,4.682,5.817,5.36,5.36,0,0,1,8.52,4.25Zm4.209,2.612-.191-.227A5.249,5.249,0,0,0,8.52,4.75,4.858,4.858,0,0,0,3.625,9.676c0,3.415,3.067,6.232,7.711,10.5l.2.188,1.189,1.071L13.92,20.36l.2-.186c4.643-4.265,7.711-7.083,7.711-10.5A4.858,4.858,0,0,0,16.938,4.75,5.249,5.249,0,0,0,12.92,6.635ZM8.52,5.689a4.371,4.371,0,0,1,3.3,1.55l.911,1.082.911-1.081a4.358,4.358,0,0,1,3.3-1.551,3.931,3.931,0,0,1,2.817,1.144,3.994,3.994,0,0,1,1.138,2.843,6.852,6.852,0,0,1-1.872,4.3,58.056,58.056,0,0,1-5.548,5.514l-.188.174-.557.505-.555-.5-.228-.212a56.826,56.826,0,0,1-5.505-5.479,6.827,6.827,0,0,1-1.872-4.3A3.994,3.994,0,0,1,5.707,6.833,3.91,3.91,0,0,1,8.52,5.689ZM12.729,9.1,11.436,7.562A3.865,3.865,0,0,0,8.52,6.189a3.414,3.414,0,0,0-2.457,1,3.5,3.5,0,0,0-.994,2.491A6.377,6.377,0,0,0,6.83,13.665a56.561,56.561,0,0,0,5.454,5.424l.445.408.219-.2.187-.173a57.8,57.8,0,0,0,5.5-5.46,6.4,6.4,0,0,0,1.761-3.989A3.5,3.5,0,0,0,19.4,7.186a3.435,3.435,0,0,0-2.462-1,3.853,3.853,0,0,0-2.916,1.372Z" transform="translate(626.271 4050.866)" fill="#171717"/>
    <path id="Ellipse_38" data-name="Ellipse 38" d="M24,2a22.006,22.006,0,0,0-8.563,42.272A22.006,22.006,0,0,0,32.563,3.728,21.86,21.86,0,0,0,24,2m0-2A24,24,0,1,1,0,24,24,24,0,0,1,24,0Z" transform="translate(615 4040)" fill="#171717"/>
  </g>
</svg>
