<svg xmlns="http://www.w3.org/2000/svg" width="38.267" height="30" viewBox="0 0 38.267 30">
  <g id="delivery-truck" transform="translate(-3 -9)">
    <path id="Path_19" data-name="Path 19" d="M41.158,23.5l-4.1-9.567A1.367,1.367,0,0,0,35.8,13.1H31.7V10.367A1.367,1.367,0,0,0,30.334,9H4.367A1.367,1.367,0,0,0,3,10.367V33.6a1.367,1.367,0,0,0,1.367,1.367H7.291a5.467,5.467,0,0,0,10.551,0h8.583a5.467,5.467,0,0,0,10.551,0H39.9A1.367,1.367,0,0,0,41.267,33.6V24.033a1.367,1.367,0,0,0-.109-.533ZM31.7,15.833h3.2l2.925,6.833H31.7Zm-19.134,20.5A2.733,2.733,0,1,1,15.3,33.6,2.733,2.733,0,0,1,12.567,36.334Zm13.858-4.1H17.842a5.467,5.467,0,0,0-10.551,0H5.733v-20.5H28.967V28.9a5.467,5.467,0,0,0-2.542,3.335Zm5.275,4.1A2.733,2.733,0,1,1,34.434,33.6,2.733,2.733,0,0,1,31.7,36.334Zm6.833-4.1H36.976a5.467,5.467,0,0,0-5.275-4.1V25.4h6.833Z" transform="translate(0)" fill="#171717"/>
  </g>
</svg>
