<svg xmlns="http://www.w3.org/2000/svg" width="43" height="41" viewBox="0 0 43 41">
  <g id="Down_arrow" data-name="Down arrow" transform="translate(-1702 -932)">
    <ellipse id="Ellipse_33" data-name="Ellipse 33" cx="21.5" cy="20.5" rx="21.5" ry="20.5" transform="translate(1702 932)" fill="#fff"/>
    <path id="Ellipse_33_-_Outline" data-name="Ellipse 33 - Outline" d="M21.5,1.5A20.776,20.776,0,0,0,13.692,3,20.022,20.022,0,0,0,7.332,7.09a18.333,18.333,0,0,0,0,26.82A20.022,20.022,0,0,0,13.692,38a21.043,21.043,0,0,0,15.615,0,20.022,20.022,0,0,0,6.36-4.088,18.333,18.333,0,0,0,0-26.82A20.022,20.022,0,0,0,29.308,3,20.776,20.776,0,0,0,21.5,1.5m0-1.5C33.374,0,43,9.178,43,20.5S33.374,41,21.5,41,0,31.822,0,20.5,9.626,0,21.5,0Z" transform="translate(1702 932)" fill="#171717"/>
    <path id="Icon_ionic-ios-arrow-down" data-name="Icon ionic-ios-arrow-down" d="M13.252,16.888l5.341-5.345a1,1,0,0,1,1.426,0,1.018,1.018,0,0,1,0,1.43l-6.051,6.056a1.008,1.008,0,0,1-1.392.029L6.482,12.977a1.01,1.01,0,0,1,1.426-1.43Z" transform="translate(1709.813 937.216)"/>
  </g>
</svg>
