<svg xmlns="http://www.w3.org/2000/svg" width="50.652" height="44.321" viewBox="0 0 50.652 44.321">
  <path id="Icon_awesome-headphones-alt" data-name="Icon awesome-headphones-alt" d="M15.829,27.576H14.246A6.337,6.337,0,0,0,7.914,33.92v6.308a6.337,6.337,0,0,0,6.332,6.343h1.583A3.169,3.169,0,0,0,18.995,43.4V30.748A3.169,3.169,0,0,0,15.829,27.576Zm20.578,0H34.824a3.169,3.169,0,0,0-3.166,3.172V43.4a3.169,3.169,0,0,0,3.166,3.172h1.583a6.337,6.337,0,0,0,6.332-6.343V33.92a6.337,6.337,0,0,0-6.332-6.343ZM25.326,2.25C11.17,2.25.452,14.036,0,27.576v11.08a1.582,1.582,0,0,0,1.583,1.583H3.166a1.582,1.582,0,0,0,1.583-1.583V27.576a20.578,20.578,0,0,1,41.155,0v11.08a1.582,1.582,0,0,0,1.583,1.583H49.07a1.582,1.582,0,0,0,1.583-1.583V27.576C50.2,14.036,39.482,2.25,25.326,2.25Z" transform="translate(0 -2.25)" fill="#171717"/>
</svg>
