<svg xmlns="http://www.w3.org/2000/svg" width="31.146" height="27.757" viewBox="0 0 31.146 27.757">
  <g id="heart_whitE" data-name="heart whitE" transform="translate(-1.465 -3.893)">
    <path id="Path_1" data-name="Path 1" d="M29.745,6.316a8.274,8.274,0,0,0-11.706,0l-1,1.015-.994-1.013-.006-.006a8.274,8.274,0,0,0-11.7,0l-.447.447a8.274,8.274,0,0,0,0,11.7L15.677,30.253l1.331,1.395.032-.032.034.034,1.247-1.316,11.87-11.87a8.283,8.283,0,0,0,0-11.7ZM28.728,17,17.04,28.69,5.35,17a6.205,6.205,0,0,1,0-8.776L5.8,7.779a6.205,6.205,0,0,1,8.773,0l2.462,2.507,2.474-2.5a6.205,6.205,0,0,1,8.776,0l.447.447A6.213,6.213,0,0,1,28.728,17Z" transform="translate(0 0)" fill="#fff"/>
  </g>
</svg>
