<svg xmlns="http://www.w3.org/2000/svg" width="33.951" height="30.257" viewBox="0 0 33.951 30.257">
  <g id="heart" transform="translate(-1.465 -3.893)">
    <path id="Path_1" data-name="Path 1" d="M32.292,6.534a9.019,9.019,0,0,0-12.76,0L18.439,7.645l-1.084-1.1-.007-.007a9.019,9.019,0,0,0-12.755,0l-.487.487a9.019,9.019,0,0,0,0,12.755l12.85,12.85,1.451,1.52.035-.035.038.038,1.36-1.435L32.779,19.776a9.03,9.03,0,0,0,0-12.755ZM31.184,18.182,18.442,30.924,5.7,18.182a6.764,6.764,0,0,1,0-9.566l.487-.487a6.764,6.764,0,0,1,9.563,0l2.684,2.733,2.7-2.729a6.764,6.764,0,0,1,9.566,0l.487.487A6.772,6.772,0,0,1,31.184,18.182Z" transform="translate(0 0)" fill="#171717"/>
  </g>
</svg>
