<svg xmlns="http://www.w3.org/2000/svg" width="48" height="48" viewBox="0 0 48 48">
  <g id="Compare_icon" data-name="Compare icon" transform="translate(-1014 -3885.831)">
    <path id="Icon_material-compare-arrows" data-name="Icon material-compare-arrows" d="M10.158,16.689H3v2.042h7.158v3.063l4.074-4.084-4.074-4.084v3.063Zm6.106-1.021V12.605h7.158V10.563H16.263V7.5l-4.074,4.084Z" transform="translate(1024.79 3895.184)" fill="#fff"/>
    <path id="Ellipse_44" data-name="Ellipse 44" d="M24,2a22.006,22.006,0,0,0-8.563,42.272A22.006,22.006,0,0,0,32.563,3.728,21.86,21.86,0,0,0,24,2m0-2A24,24,0,1,1,0,24,24,24,0,0,1,24,0Z" transform="translate(1014 3885.831)" fill="#fff"/>
  </g>
</svg>
