<svg xmlns="http://www.w3.org/2000/svg" width="48" height="48" viewBox="0 0 48 48">
  <g id="Quick_view_icon" data-name="Quick view icon" transform="translate(-951 -3885.831)">
    <path id="Icon_material-remove-red-eye" data-name="Icon material-remove-red-eye" d="M11,6.75a10.214,10.214,0,0,0-9.5,6.477,10.205,10.205,0,0,0,19,0A10.214,10.214,0,0,0,11,6.75Zm0,10.8a4.318,4.318,0,1,1,4.318-4.318A4.32,4.32,0,0,1,11,17.545Zm0-6.909a2.591,2.591,0,1,0,2.591,2.591A2.587,2.587,0,0,0,11,10.636Z" transform="translate(964 3896.604)" fill="#fff"/>
    <path id="Ellipse_43" data-name="Ellipse 43" d="M24,2a22.006,22.006,0,0,0-8.563,42.272A22.006,22.006,0,0,0,32.563,3.728,21.86,21.86,0,0,0,24,2m0-2A24,24,0,1,1,0,24,24,24,0,0,1,24,0Z" transform="translate(951 3885.831)" fill="#fff"/>
  </g>
</svg>
