<svg xmlns="http://www.w3.org/2000/svg" width="21.606" height="21.606" viewBox="0 0 21.606 21.606">
  <g id="Icon_feather-search" data-name="Icon feather-search" transform="translate(-3 -3)">
    <path id="Path_5" data-name="Path 5" d="M12.769,3A9.769,9.769,0,1,1,3,12.769,9.78,9.78,0,0,1,12.769,3Zm0,16.538A6.769,6.769,0,1,0,6,12.769,6.777,6.777,0,0,0,12.769,19.538Z" fill="#fff"/>
    <path id="Path_6" data-name="Path 6" d="M29.471,30.971a1.5,1.5,0,0,1-1.061-.439l-4.5-4.5a1.5,1.5,0,0,1,2.121-2.121l4.5,4.5a1.5,1.5,0,0,1-1.061,2.561Z" transform="translate(-6.366 -6.366)" fill="#fff"/>
  </g>
</svg>
