<svg xmlns="http://www.w3.org/2000/svg" width="31" height="25" viewBox="0 0 31 25">
  <g transform="translate(-339.5 -1247.5)">
    <path id="Icon_material-payment" data-name="Icon material-payment" d="M30,6H6A2.977,2.977,0,0,0,3.015,9L3,27a2.99,2.99,0,0,0,3,3H30a2.99,2.99,0,0,0,3-3V9A2.99,2.99,0,0,0,30,6Zm0,21H6V18H30Zm0-15H6V9H30Z" transform="translate(337 1242)" fill="#171717"/>
    <path id="Icon_material-payment_-_Outline" data-name="Icon material-payment - Outline" d="M6,5.5H30A3.49,3.49,0,0,1,33.5,9V27A3.49,3.49,0,0,1,30,30.5H6A3.49,3.49,0,0,1,2.5,27L2.515,9A3.477,3.477,0,0,1,6,5.5Zm24,24A2.5,2.5,0,0,0,32.5,27V9A2.5,2.5,0,0,0,30,6.5H6A2.466,2.466,0,0,0,3.515,9L3.5,27A2.5,2.5,0,0,0,6,29.5ZM5.5,8.5h25v4H5.5Zm24,1H6.5v2h23Zm-24,8h25v10H5.5Zm24,1H6.5v8h23Z" transform="translate(337 1242)" fill="#171717"/>
  </g>
</svg>
