<svg xmlns="http://www.w3.org/2000/svg" width="40.455" height="40.516" viewBox="0 0 40.455 40.516">
  <path id="order_-_icon" data-name="order - icon" d="M39.206,5.082,20.665.026a1.551,1.551,0,0,0-.876,0L1.248,5.082A1.686,1.686,0,0,0,0,6.768V32.051a1.686,1.686,0,0,0,1.112,1.584l18.541,6.742h0a1.483,1.483,0,0,0,1.079,0h0l18.541-6.742a1.686,1.686,0,0,0,1.18-1.584V6.768a1.686,1.686,0,0,0-1.247-1.686ZM20.227,3.4,35.4,7.611l-15.17,4.214L5.057,7.611ZM3.371,13.51V10.661l15.17,4.13V36.383L3.371,30.871ZM37.082,30.871l-15.17,5.512V14.791l15.17-4.13V30.888Z" transform="translate(0.001 0.037)"/>
</svg>
