<svg xmlns="http://www.w3.org/2000/svg" width="20.112" height="18.676" viewBox="0 0 20.112 18.676">
  <path id="Icon_ionic-ios-star" data-name="Icon ionic-ios-star" d="M21.6,9.84H15L12.989,3.851a.727.727,0,0,0-1.365,0L9.617,9.84H2.968a.72.72,0,0,0-.718.718.528.528,0,0,0,.013.121.69.69,0,0,0,.3.507l5.428,3.825L5.909,21.068a.72.72,0,0,0,.247.808.7.7,0,0,0,.4.175.88.88,0,0,0,.449-.162l5.3-3.776,5.3,3.776a.841.841,0,0,0,.449.162.645.645,0,0,0,.4-.175.712.712,0,0,0,.247-.808l-2.083-6.056L22,11.151l.13-.112a.753.753,0,0,0,.233-.48A.76.76,0,0,0,21.6,9.84Z" transform="translate(-2.25 -3.375)" fill="#ff9923"/>
</svg>
