<svg xmlns="http://www.w3.org/2000/svg" width="32.008" height="32.008" viewBox="0 0 32.008 32.008">
  <g id="Icon_feather-search" data-name="Icon feather-search" transform="translate(-3 -3)">
    <path id="Path_5" data-name="Path 5" d="M17.392,3A14.392,14.392,0,0,1,27.569,27.569,14.392,14.392,0,1,1,7.215,7.215,14.3,14.3,0,0,1,17.392,3Zm0,25.785A11.392,11.392,0,1,0,6,17.392,11.405,11.405,0,0,0,17.392,28.785Z" fill="#fff"/>
    <path id="Path_6" data-name="Path 6" d="M31.985,33.485a1.5,1.5,0,0,1-1.061-.439l-7.01-7.01a1.5,1.5,0,0,1,2.121-2.121l7.01,7.01a1.5,1.5,0,0,1-1.061,2.561Z" transform="translate(1.523 1.523)" fill="#fff"/>
  </g>
</svg>
