<svg xmlns="http://www.w3.org/2000/svg" width="151.901" height="117.685" viewBox="0 0 151.901 117.685">
  <path id="Thankyou_-_icon" data-name="Thankyou - icon" d="M35.216,4.055,57.051,27.688,41.646,58.055l32.532-5.829,14.81,35.735L151.9,5.466ZM31.19,55.245l6.057-4.981-7.81,2.468-.8-1.139,3.228-3.133-4.234,1.709A43.112,43.112,0,0,0,13.5,121.74a42.805,42.805,0,0,1-5.6-21.234A44.187,44.187,0,0,1,35.209,59.872L37.2,55.024l-4.747,2.095-1.335-1.8.07-.07ZM58.811,42.777,68.925,24.922l59.482-13.931Z" transform="translate(0 -4.055)"/>
</svg>
