<svg xmlns="http://www.w3.org/2000/svg" width="32.755" height="40.033" viewBox="0 0 32.755 40.033">
  <g id="wishlist_-_icon" data-name="wishlist - icon" transform="translate(-64 -21.334)">
    <path id="Path_32" data-name="Path 32" d="M93.115,24.063H89.476v-.91a1.822,1.822,0,0,0-1.82-1.82H73.1a1.822,1.822,0,0,0-1.82,1.82v.91H67.639A3.644,3.644,0,0,0,64,27.7V57.728a3.644,3.644,0,0,0,3.639,3.639H93.115a3.644,3.644,0,0,0,3.639-3.639V27.7a3.644,3.644,0,0,0-3.639-3.639ZM73.1,23.154H87.656v3.639H73.1ZM94.935,57.728a1.821,1.821,0,0,1-1.82,1.82H67.639a1.821,1.821,0,0,1-1.82-1.82V27.7a1.822,1.822,0,0,1,1.82-1.82h3.639v.91a1.822,1.822,0,0,0,1.82,1.82H87.656a1.822,1.822,0,0,0,1.82-1.82v-.91h3.639a1.822,1.822,0,0,1,1.82,1.82Z" transform="translate(0)"/>
    <path id="Path_33" data-name="Path 33" d="M226.981,181.333H214.243a.91.91,0,1,0,0,1.82h12.738a.91.91,0,1,0,0-1.82Z" transform="translate(-136.595 -146.351)"/>
    <path id="Path_34" data-name="Path 34" d="M131.639,160h-1.82a1.822,1.822,0,0,0-1.82,1.82v1.82a1.822,1.822,0,0,0,1.82,1.82h1.82a1.822,1.822,0,0,0,1.82-1.82v-1.82A1.822,1.822,0,0,0,131.639,160Zm-1.82,3.639v-1.82h1.82v1.82Z" transform="translate(-58.541 -126.838)"/>
    <path id="Path_35" data-name="Path 35" d="M226.981,277.333H214.243a.91.91,0,1,0,0,1.82h12.738a.91.91,0,1,0,0-1.82Z" transform="translate(-136.595 -234.162)"/>
    <path id="Path_36" data-name="Path 36" d="M131.639,256h-1.82a1.822,1.822,0,0,0-1.82,1.82v1.82a1.821,1.821,0,0,0,1.82,1.82h1.82a1.821,1.821,0,0,0,1.82-1.82v-1.82A1.821,1.821,0,0,0,131.639,256Zm-1.82,3.639v-1.82h1.82v1.82Z" transform="translate(-58.541 -214.649)"/>
    <path id="Path_37" data-name="Path 37" d="M226.981,373.333H214.243a.91.91,0,1,0,0,1.82h12.738a.91.91,0,1,0,0-1.82Z" transform="translate(-136.595 -321.974)"/>
    <path id="Path_38" data-name="Path 38" d="M131.639,352h-1.82a1.821,1.821,0,0,0-1.82,1.82v1.82a1.821,1.821,0,0,0,1.82,1.82h1.82a1.821,1.821,0,0,0,1.82-1.82v-1.82A1.821,1.821,0,0,0,131.639,352Zm-1.82,3.639v-1.82h1.82v1.82Z" transform="translate(-58.541 -302.461)"/>
  </g>
</svg>
